<svg width="12" height="12" viewBox="0 0 12 12" fill="none" xmlns="http://www.w3.org/2000/svg">
<path d="M6 0C2.69053 0 0 2.69053 0 6C0 9.30947 2.69053 12 6 12C9.30947 12 12 9.30947 12 6C12 2.69053 9.30947 0 6 0ZM11.1537 5.58632H8.89579C8.8421 3.71368 8.40632 2.12842 7.74 1.13053C9.61263 1.8 10.9895 3.52421 11.1537 5.58632ZM6 11.1726C5.06211 11.1726 4.02632 9.24 3.93158 6.41368H8.06842C7.97368 9.24 6.93789 11.1726 6 11.1726ZM3.93158 5.58632C4.02632 2.76316 5.06526 0.827368 6 0.827368C6.93789 0.827368 7.97368 2.76 8.06842 5.58632H3.93158ZM4.26316 1.13053C3.59684 2.12842 3.16105 3.71684 3.10421 5.58632H0.846316C1.01053 3.52421 2.38737 1.8 4.26316 1.13053ZM0.846316 6.41368H3.10421C3.16105 8.28631 3.59684 9.87158 4.26316 10.8695C2.38737 10.2 1.01053 8.47579 0.846316 6.41368ZM7.74 10.8726C8.40632 9.87474 8.8421 8.28631 8.89895 6.41684H11.1568C10.9895 8.47579 9.61263 10.2 7.74 10.8726Z" fill="white"/>
</svg>
